<?xml version="1.0" standalone="no"?><!DOCTYPE svg PUBLIC "-//W3C//DTD SVG 1.1//EN" "http://www.w3.org/Graphics/SVG/1.1/DTD/svg11.dtd"><svg t="1731077613875" class="icon" viewBox="0 0 1024 1024" version="1.1" xmlns="http://www.w3.org/2000/svg" p-id="11750" data-darkreader-inline-fill="" xmlns:xlink="http://www.w3.org/1999/xlink" width="200" height="200"><path d="M161.792 824.448A64.106667 64.106667 0 0 1 128 768V256a64.021333 64.021333 0 1 1 99.52-53.248l384 256a64 64 0 0 1-0.064 106.496l-384 256a63.872 63.872 0 0 1-65.664 3.2zM704 832c-35.392 0-64-28.608-64-64V256c0-35.392 28.608-64 64-64h128c35.392 0 64 28.608 64 64v512c0 35.392-28.608 64-64 64h-128z" fill="#707070" p-id="11751" data-darkreader-inline-fill="" style="--darkreader-inline-fill: #50565a;"></path></svg>