<?xml version="1.0" standalone="no"?><!DOCTYPE svg PUBLIC "-//W3C//DTD SVG 1.1//EN" "http://www.w3.org/Graphics/SVG/1.1/DTD/svg11.dtd"><svg t="1730964566376" class="icon" viewBox="0 0 1024 1024" version="1.1" xmlns="http://www.w3.org/2000/svg" p-id="4335" data-darkreader-inline-fill="" xmlns:xlink="http://www.w3.org/1999/xlink" width="200" height="200"><path d="M289.312 404.704H252.992a21.664 21.664 0 0 0-21.632 21.632v317.504c0 12 9.664 21.696 21.632 21.696h36.32a21.664 21.664 0 0 0 21.664-21.696v-317.504a21.664 21.664 0 0 0-21.664-21.632m160.576 187.488h-36.32a21.664 21.664 0 0 0-21.664 21.632v130.048c0 11.968 9.696 21.664 21.664 21.664h36.32a21.664 21.664 0 0 0 21.664-21.664v-130.048a21.664 21.664 0 0 0-21.664-21.632m160.544-90.24h-36.32a21.664 21.664 0 0 0-21.664 21.664v220.256c0 11.968 9.696 21.664 21.664 21.664h36.32a21.664 21.664 0 0 0 21.664-21.664v-220.256a21.664 21.664 0 0 0-21.664-21.664m160.544-243.456h-36.32a21.664 21.664 0 0 0-21.632 21.632v463.744c0 11.968 9.696 21.664 21.632 21.664h36.32a21.664 21.664 0 0 0 21.664-21.664V280.128a21.664 21.664 0 0 0-21.664-21.632" fill="#f6143e" p-id="4336" data-darkreader-inline-fill="" style="--darkreader-inline-fill: #b50727;"></path></svg>